<?xml version="1.0" standalone="no"?><svg xmlns="http://www.w3.org/2000/svg" viewBox="0 0 1440 320"><defs>
    <linearGradient id="linear" x1="0%" y1="0%" x2="100%" y2="0%">
      <stop offset="10%"   stop-color="rgba(50, 172, 109, 1)"/>
      <stop offset="100%" stop-color="rgba(209, 251, 155, 1)"/>
    </linearGradient>
  </defs><path fill="url(#linear)" fill-opacity="1" d="M0,160L34.3,181.3C68.6,203,137,245,206,272C274.3,299,343,309,411,266.7C480,224,549,128,617,122.7C685.7,117,754,203,823,240C891.4,277,960,267,1029,224C1097.1,181,1166,107,1234,101.3C1302.9,96,1371,160,1406,192L1440,224L1440,0L1405.7,0C1371.4,0,1303,0,1234,0C1165.7,0,1097,0,1029,0C960,0,891,0,823,0C754.3,0,686,0,617,0C548.6,0,480,0,411,0C342.9,0,274,0,206,0C137.1,0,69,0,34,0L0,0Z"></path></svg>
