<?xml version="1.0" standalone="no"?><svg xmlns="http://www.w3.org/2000/svg" viewBox="0 0 1440 320"> <defs>
<defs>
    <linearGradient id="linear" x1="0%" y1="0%" x2="100%" y2="0%">
      <stop offset="10%"   stop-color="rgba(50, 172, 109, 1)"/>
      <stop offset="100%" stop-color="rgba(209, 251, 155, 1)"/>
    </linearGradient>
  </defs>
  </defs> <path fill="url(#linear)" fill-opacity="1" d="M0,160L48,138.7C96,117,192,75,288,80C384,85,480,139,576,176C672,213,768,235,864,229.3C960,224,1056,192,1152,186.7C1248,181,1344,203,1392,213.3L1440,224L1440,320L1392,320C1344,320,1248,320,1152,320C1056,320,960,320,864,320C768,320,672,320,576,320C480,320,384,320,288,320C192,320,96,320,48,320L0,320Z"></path></svg>
