<?xml version="1.0" standalone="no"?><svg xmlns="http://www.w3.org/2000/svg" viewBox="0 0 1440 320"><defs>
    <linearGradient id="linear" x1="0%" y1="0%" x2="100%" y2="0%">
      <stop offset="10%"   stop-color="rgba(50, 172, 109, 1)"/>
      <stop offset="100%" stop-color="rgba(209, 251, 155, 1)"/>
    </linearGradient>
  </defs><path fill="url(#linear)" fill-opacity="1" d="M0,256L48,240C96,224,192,192,288,165.3C384,139,480,117,576,138.7C672,160,768,224,864,250.7C960,277,1056,267,1152,250.7C1248,235,1344,213,1392,202.7L1440,192L1440,0L1392,0C1344,0,1248,0,1152,0C1056,0,960,0,864,0C768,0,672,0,576,0C480,0,384,0,288,0C192,0,96,0,48,0L0,0Z"></path></svg>
