<?xml version="1.0" standalone="no"?><svg xmlns="http://www.w3.org/2000/svg" viewBox="0 0 1440 320"><defs>
    <linearGradient id="linear" x1="0%" y1="0%" x2="100%" y2="0%">
      <stop offset="10%"   stop-color="rgba(50, 172, 109, 1)"/>
      <stop offset="100%" stop-color="rgba(209, 251, 155, 1)"/>
    </linearGradient>
  </defs><path fill="url(#linear)" fill-opacity="1" d="M0,192L40,208C80,224,160,256,240,240C320,224,400,160,480,149.3C560,139,640,181,720,170.7C800,160,880,96,960,96C1040,96,1120,160,1200,186.7C1280,213,1360,203,1400,197.3L1440,192L1440,0L1400,0C1360,0,1280,0,1200,0C1120,0,1040,0,960,0C880,0,800,0,720,0C640,0,560,0,480,0C400,0,320,0,240,0C160,0,80,0,40,0L0,0Z"></path></svg>
