<?xml version="1.0" standalone="no"?>
<!DOCTYPE svg PUBLIC "-//W3C//DTD SVG 20010904//EN"
 "http://www.w3.org/TR/2001/REC-SVG-20010904/DTD/svg10.dtd">
<svg version="1.0" xmlns="http://www.w3.org/2000/svg"
 width="700.000000pt" height="700.000000pt" viewBox="0 0 700.000000 700.000000"
 preserveAspectRatio="xMidYMid meet">
<metadata>
Created by potrace 1.11, written by Peter Selinger 2001-2013
</metadata>
<g transform="translate(0.000000,700.000000) scale(0.100000,-0.100000)"
fill="#000000" stroke="none">
<path d="M3345 6109 c-214 -44 -394 -211 -460 -429 -9 -30 -18 -107 -21 -170
-3 -63 -6 -116 -8 -117 -1 -2 -1434 -5 -1496 -3 -8 0 4 11 26 25 64 38 77 76
81 230 3 147 -5 189 -45 233 -53 61 -64 63 -478 62 -346 0 -380 -2 -418 -19
-84 -37 -104 -90 -101 -271 1 -121 4 -140 24 -177 13 -22 39 -49 58 -60 l35
-20 -119 -5 c-86 -4 -133 -11 -173 -27 -104 -39 -193 -134 -231 -243 -17 -50
-18 -141 -19 -1869 0 -1784 0 -1818 20 -1880 36 -118 136 -216 257 -254 55
-18 132 -19 1617 -18 l1560 0 83 -38 c113 -52 206 -84 337 -119 99 -25 145
-34 306 -56 61 -8 323 -8 390 0 30 4 73 9 95 12 159 20 411 96 585 177 l55 25
667 0 c366 0 685 3 707 7 102 17 226 107 272 197 51 101 49 -1 46 1963 l-2
1830 -32 65 c-61 124 -167 204 -298 224 -16 2 -197 5 -400 5 l-371 1 1 78 c1
99 -10 172 -36 246 -59 165 -190 304 -346 365 -111 43 -124 44 -1126 45 -864
2 -966 0 -1042 -15z"/>
</g>
</svg>
